<?xml version="1.0" encoding="UTF-8" standalone="no"?>
<svg
   width="3.7in"
   height="2.69291in"
   viewBox="0 0 93.980006 68.399919"
   version="1.1"
   id="svg4294"
   inkscape:version="1.1.2 (b8e25be833, 2022-02-05)"
   sodipodi:docname="drawing.svg"
   xmlns:inkscape="http://www.inkscape.org/namespaces/inkscape"
   xmlns:sodipodi="http://sodipodi.sourceforge.net/DTD/sodipodi-0.dtd"
   xmlns="http://www.w3.org/2000/svg"
   xmlns:svg="http://www.w3.org/2000/svg"
   xmlns:rdf="http://www.w3.org/1999/02/22-rdf-syntax-ns#"
   xmlns:cc="http://creativecommons.org/ns#"
   xmlns:dc="http://purl.org/dc/elements/1.1/">
  <defs
     id="defs4288" />
  <sodipodi:namedview
     id="base"
     pagecolor="#ffffff"
     bordercolor="#666666"
     borderopacity="1.0"
     inkscape:pageopacity="0.0"
     inkscape:pageshadow="2"
     inkscape:zoom="1.979899"
     inkscape:cx="91.166267"
     inkscape:cy="78.034284"
     inkscape:document-units="mm"
     inkscape:current-layer="layer1"
     inkscape:document-rotation="0"
     showgrid="false"
     units="in"
     inkscape:window-width="1920"
     inkscape:window-height="1001"
     inkscape:window-x="-9"
     inkscape:window-y="-9"
     inkscape:window-maximized="1"
     inkscape:pagecheckerboard="0" />
  <metadata
     id="metadata4291">
    <rdf:RDF>
      <cc:Work
         rdf:about="">
        <dc:format>image/svg+xml</dc:format>
        <dc:type
           rdf:resource="http://purl.org/dc/dcmitype/StillImage" />
      </cc:Work>
    </rdf:RDF>
  </metadata>
  <g
     inkscape:groupmode="layer"
     id="layer2"
     inkscape:label="Layer 2"
     style="display:none;opacity:0.81"
     sodipodi:insensitive="true">
    <text
       xml:space="preserve"
       style="font-style:normal;font-weight:normal;font-size:3.88056px;line-height:1.25;font-family:sans-serif;letter-spacing:0px;word-spacing:0px;fill:#000000;fill-opacity:1;stroke:none;stroke-width:0.264583"
       x="55.863453"
       y="81.955612"
       id="text4978-3"
       inkscape:export-xdpi="90"
       inkscape:export-ydpi="90"><tspan
         sodipodi:role="line"
         id="tspan4976-0"
         x="55.863453"
         y="81.955612"
         style="font-size:3.88056px;stroke-width:0.264583">Reset Ph Acc</tspan></text>
    <path
       style="fill:none;stroke:#000000;stroke-width:0.264583px;stroke-linecap:butt;stroke-linejoin:miter;stroke-opacity:1"
       d="m 53.861606,80.13095 c -1.439805,0.311608 -2.640862,1.035709 -3.779761,1.889882 -0.31786,0.238395 -0.627084,0.139584 -0.944941,0.377976 -0.112691,0.08452 -0.104471,0.265287 -0.188989,0.377976 -0.419936,0.559916 -1.124262,0.930444 -1.511903,1.511906 -0.156274,0.23441 -0.221703,0.521541 -0.377976,0.755951 -0.09884,0.148254 -0.321633,0.208942 -0.377979,0.377976 -0.03984,0.119528 0.03984,0.25845 0,0.377978 -0.05634,0.169035 -0.32163,0.208939 -0.377975,0.377976 -0.280385,0.841158 0.188989,2.350495 0.188989,3.212796 0,0.115329 -0.07364,0.682315 0,0.755954 0.424241,0.424241 0.542105,-0.303398 0.566965,-0.377976 0.08617,-0.258532 0.829326,-0.640339 0.944938,-0.755954 0.199213,-0.19921 0.178766,-0.556741 0.377979,-0.755952 0.125992,-0.125991 0.556154,-0.377975 0.377975,-0.377975 -0.140864,0 -0.08938,0.27837 -0.188989,0.377975 -0.364336,0.364337 -0.504497,0.442035 -0.755951,0.944941 -0.114001,0.228002 -0.556057,0.311343 -0.755952,0.377976 -0.205166,0.06839 -0.905788,0.397552 -0.944941,0.377976 C 45.799871,89.80172 45.760318,89.416568 45.54613,89.20238 45.273588,88.929838 44.795407,88.640646 44.412203,88.257439"
       id="path5054"
       inkscape:export-xdpi="90"
       inkscape:export-ydpi="90" />
  </g>
  <g
     inkscape:groupmode="layer"
     id="layer3"
     inkscape:label="Layer 3"
     style="display:none"
     sodipodi:insensitive="true">
    <path
       style="display:inline;fill:none;fill-opacity:1;stroke:#e40000;stroke-width:0.264583px;stroke-linecap:butt;stroke-linejoin:miter;stroke-opacity:1"
       d="M 7.0398075,42.120722 C 43.703497,23.221912 43.703497,23.221912 43.703497,23.221912 c 0,18.89881 0,18.89881 0,18.89881 C 80.367185,23.221913 80.367185,23.221913 80.367185,23.221913"
       id="path4928-7"
       inkscape:export-xdpi="90"
       inkscape:export-ydpi="90" />
    <path
       style="display:inline;fill:none;stroke:#d10000;stroke-width:0.264583px;stroke-linecap:butt;stroke-linejoin:miter;stroke-opacity:1"
       d="M 6.7563263,65.507999 C 43.420015,46.609189 43.420015,46.609189 43.420015,46.609189 c 0,18.89881 0,18.89881 0,18.89881 C 80.083703,46.60919 80.083703,46.60919 80.083703,46.60919"
       id="path4928-7-7"
       inkscape:export-xdpi="90"
       inkscape:export-ydpi="90" />
  </g>
  <g
     inkscape:label="Layer 1"
     inkscape:groupmode="layer"
     id="layer1"
     style="display:inline">
    <path
       style="fill:none;stroke:#000000;stroke-width:0.264583px;stroke-linecap:butt;stroke-linejoin:miter;stroke-opacity:1"
       d="M 7.1815531,20.977679 C 43.845242,2.0788686 43.845242,2.0788686 43.845242,2.0788686 c 0,18.8988104 0,18.8988104 0,18.8988104 C 80.50893,2.0788696 80.50893,2.0788696 80.50893,2.0788696"
       id="path4928"
       inkscape:export-xdpi="90"
       inkscape:export-ydpi="90" />
    <path
       style="fill:none;stroke:#000000;stroke-width:0.264583px;stroke-linecap:butt;stroke-linejoin:miter;stroke-opacity:1"
       d="m 6.7563261,65.507999 c 0,0 5.0035329,-2.499209 4.9367159,-2.566027 -0.06682,-0.06681 -0.06682,-0.06681 -0.06682,-0.06681 2e-6,-15.96936 2e-6,-16.036177 2e-6,-16.036177 l 31.604622,16.503893 0.189169,2.165121"
       id="path8078" />
    <path
       style="fill:none;stroke:#000000;stroke-width:0.264583px;stroke-linecap:butt;stroke-linejoin:miter;stroke-opacity:1"
       d="M 7.0398073,42.120722 C 34.277315,28.130119 34.277315,28.130119 34.277315,28.130119 l 0.06682,-5.078123 9.287616,5.412209 0.07175,13.656517"
       id="path8513" />
    <path
       style="display:inline;fill:none;stroke:#000000;stroke-width:0.264583px;stroke-linecap:butt;stroke-linejoin:miter;stroke-opacity:1"
       d="M 43.542064,42.407834 C 70.779572,28.417231 70.779572,28.417231 70.779572,28.417231 l 0.06682,-5.078123 9.287616,5.412209 0.07175,13.656517"
       id="path8513-9" />
    <path
       style="display:inline;fill:none;stroke:#000000;stroke-width:0.264583px;stroke-linecap:butt;stroke-linejoin:miter;stroke-opacity:1"
       d="m 43.420015,65.507999 c 0,0 5.003533,-2.499209 4.936716,-2.566027 -0.06682,-0.06681 -0.06682,-0.06681 -0.06682,-0.06681 2e-6,-15.96936 2e-6,-16.036177 2e-6,-16.036177 l 31.604622,16.503893 0.189169,2.165121"
       id="path8078-5" />
  </g>
</svg>
