<?xml version="1.0" encoding="UTF-8" standalone="no"?>
<svg
   xmlns:dc="http://purl.org/dc/elements/1.1/"
   xmlns:cc="http://creativecommons.org/ns#"
   xmlns:rdf="http://www.w3.org/1999/02/22-rdf-syntax-ns#"
   xmlns:svg="http://www.w3.org/2000/svg"
   xmlns="http://www.w3.org/2000/svg"
   xmlns:sodipodi="http://sodipodi.sourceforge.net/DTD/sodipodi-0.dtd"
   xmlns:inkscape="http://www.inkscape.org/namespaces/inkscape"
   width="3.7in"
   height="2.69291in"
   viewBox="0 0 93.980006 68.399919"
   version="1.1"
   id="svg4294"
   inkscape:version="1.0.2-2 (e86c870879, 2021-01-15)"
   sodipodi:docname="drawing.svg">
  <defs
     id="defs4288" />
  <sodipodi:namedview
     id="base"
     pagecolor="#ffffff"
     bordercolor="#666666"
     borderopacity="1.0"
     inkscape:pageopacity="0.0"
     inkscape:pageshadow="2"
     inkscape:zoom="1.4"
     inkscape:cx="95.580473"
     inkscape:cy="197.19161"
     inkscape:document-units="mm"
     inkscape:current-layer="layer2"
     inkscape:document-rotation="0"
     showgrid="false"
     units="in"
     inkscape:window-width="1920"
     inkscape:window-height="1001"
     inkscape:window-x="-9"
     inkscape:window-y="-9"
     inkscape:window-maximized="1" />
  <metadata
     id="metadata4291">
    <rdf:RDF>
      <cc:Work
         rdf:about="">
        <dc:format>image/svg+xml</dc:format>
        <dc:type
           rdf:resource="http://purl.org/dc/dcmitype/StillImage" />
        <dc:title></dc:title>
      </cc:Work>
    </rdf:RDF>
  </metadata>
  <g
     inkscape:groupmode="layer"
     id="layer2"
     inkscape:label="Layer 2"
     style="display:inline;opacity:0.81">
    <text
       xml:space="preserve"
       style="font-style:normal;font-weight:normal;font-size:3.88056px;line-height:1.25;font-family:sans-serif;letter-spacing:0px;word-spacing:0px;fill:#000000;fill-opacity:1;stroke:none;stroke-width:0.264583"
       x="59.26524"
       y="37.354424"
       id="text4978-3"><tspan
         sodipodi:role="line"
         id="tspan4976-0"
         x="59.26524"
         y="37.354424"
         style="font-size:3.88056px;stroke-width:0.264583">Reset Ph Acc</tspan></text>
    <path
       style="fill:none;stroke:#000000;stroke-width:0.264583px;stroke-linecap:butt;stroke-linejoin:miter;stroke-opacity:1"
       d="m 57.263392,35.52976 c -1.439805,0.311608 -2.640862,1.035709 -3.779761,1.889882 -0.31786,0.238395 -0.627084,0.139584 -0.944941,0.377976 -0.112691,0.08452 -0.104471,0.265287 -0.188989,0.377976 -0.419936,0.559916 -1.124262,0.930444 -1.511903,1.511906 -0.156274,0.23441 -0.221703,0.521541 -0.377976,0.755951 -0.09884,0.148254 -0.321633,0.208942 -0.377979,0.377976 -0.03984,0.119528 0.03984,0.25845 0,0.377978 -0.05634,0.169035 -0.32163,0.208939 -0.377975,0.377976 -0.280385,0.841158 0.188989,2.350495 0.188989,3.212796 0,0.115329 -0.07364,0.682315 0,0.755954 0.424241,0.424241 0.542105,-0.303398 0.566965,-0.377976 0.08617,-0.258532 0.829326,-0.640339 0.944938,-0.755954 0.199213,-0.19921 0.178766,-0.556741 0.377979,-0.755952 0.125992,-0.125991 0.556154,-0.377975 0.377975,-0.377975 -0.140864,0 -0.08938,0.27837 -0.188989,0.377975 -0.364336,0.364337 -0.504497,0.442035 -0.755951,0.944941 -0.114001,0.228002 -0.556057,0.311343 -0.755952,0.377976 -0.205166,0.06839 -0.905788,0.397552 -0.944941,0.377976 -0.313224,-0.156612 -0.352777,-0.541764 -0.566965,-0.755952 -0.272542,-0.272542 -0.750723,-0.561734 -1.133927,-0.944941"
       id="path5054" />
  </g>
  <g
     inkscape:label="Layer 1"
     inkscape:groupmode="layer"
     id="layer1"
     style="display:inline"
     sodipodi:insensitive="true">
    <path
       style="fill:none;stroke:#000000;stroke-width:0.264583px;stroke-linecap:butt;stroke-linejoin:miter;stroke-opacity:1"
       d="M 13.040184,31.75 C 49.703873,12.85119 49.703873,12.85119 49.703873,12.85119 c 0,18.89881 0,18.89881 0,18.89881 C 86.367561,12.851191 86.367561,12.851191 86.367561,12.851191"
       id="path4928" />
    <path
       style="fill:none;stroke:#000000;stroke-width:0.264583px;stroke-linecap:butt;stroke-linejoin:miter;stroke-opacity:1"
       d="m 13.229168,58.019346 24.193498,-18.94119 v 18.94119 L 50.081843,48.002975 49.892857,58.019349 70.870534,39.6875 c 0,0 -0.377976,17.953868 -0.377976,18.142857 0,0.188986 0,0.188986 0,0.188986 l 15.875,-10.016368"
       id="path4974" />
    <text
       xml:space="preserve"
       style="font-style:normal;font-weight:normal;font-size:3.88056px;line-height:1.25;font-family:sans-serif;letter-spacing:0px;word-spacing:0px;fill:#000000;fill-opacity:1;stroke:none;stroke-width:0.264583"
       x="11.150297"
       y="6.8035707"
       id="text4978"><tspan
         sodipodi:role="line"
         id="tspan4976"
         x="11.150297"
         y="6.8035707"
         style="font-size:3.88056px;stroke-width:0.264583">Accumulator = Accumulator + note</tspan></text>
    <text
       xml:space="preserve"
       style="font-style:normal;font-weight:normal;font-size:3.88056px;line-height:1.25;font-family:sans-serif;letter-spacing:0px;word-spacing:0px;fill:#000000;fill-opacity:1;stroke:none;stroke-width:0.264583"
       x="11.233572"
       y="64.00174"
       id="text4978-0"><tspan
         sodipodi:role="line"
         id="tspan4976-4"
         x="11.233572"
         y="64.00174"
         style="font-size:3.88056px;stroke-width:0.264583">Ph Acc = PhAcc + note + note*cv</tspan></text>
  </g>
</svg>
