
<svg xmlns="http://www.w3.org/2000/svg"
     xmlns:xlink="http://www.w3.org/1999/xlink" version="1.1" width="1072"
     height="482">
    <defs/>
    <g transform=" scale(0.92) translate(-124,-203.60000610351562)">
        <rect x="384" y="320" width="160" height="160" fill="#6ccefb"
              stroke="#000" stroke-width="4.8" pointer-events="none"/>
        <path d="M 544 342.4 L 544 342.4" fill="none" stroke="#000"
              stroke-width="3.2" stroke-miterlimit="10" pointer-events="none"/>
        <path d="M 544 364.8 L 544 364.8" fill="none" stroke="#000"
              stroke-width="3.2" stroke-miterlimit="10" pointer-events="none"/>
        <path d="M 544 387.2 L 544 387.2" fill="none" stroke="#000"
              stroke-width="3.2" stroke-miterlimit="10" pointer-events="none"/>
        <path d="M 544 409.6 L 544 409.6" fill="none" stroke="#000"
              stroke-width="3.2" stroke-miterlimit="10" pointer-events="none"/>
        <path d="M 544 432 L 544 432" fill="none" stroke="#000"
              stroke-width="3.2" stroke-miterlimit="10" pointer-events="none"/>
        <path d="M 544 454.4 L 544 454.4" fill="none" stroke="#000"
              stroke-width="3.2" stroke-miterlimit="10" pointer-events="none"/>
        <path d="M 521.6 480 L 521.6 480" fill="none" stroke="#000"
              stroke-width="3.2" stroke-miterlimit="10" pointer-events="none"/>
        <path d="M 499.2 480 L 499.2 480" fill="none" stroke="#000"
              stroke-width="3.2" stroke-miterlimit="10" pointer-events="none"/>
        <path d="M 476.8 480 L 476.8 480" fill="none" stroke="#000"
              stroke-width="3.2" stroke-miterlimit="10" pointer-events="none"/>
        <path d="M 454.4 480 L 454.4 480" fill="none" stroke="#000"
              stroke-width="3.2" stroke-miterlimit="10" pointer-events="none"/>
        <path d="M 432 480 L 432 480" fill="none" stroke="#000"
              stroke-width="3.2" stroke-miterlimit="10" pointer-events="none"/>
        <path d="M 409.6 480 L 409.6 480" fill="none" stroke="#000"
              stroke-width="3.2" stroke-miterlimit="10" pointer-events="none"/>
        <path d="M 384 457.6 L 384 457.6" fill="none" stroke="#000"
              stroke-width="3.2" stroke-miterlimit="10" pointer-events="none"/>
        <path d="M 384 435.2 L 384 435.2" fill="none" stroke="#000"
              stroke-width="3.2" stroke-miterlimit="10" pointer-events="none"/>
        <path d="M 384 412.8 L 384 412.8" fill="none" stroke="#000"
              stroke-width="3.2" stroke-miterlimit="10" pointer-events="none"/>
        <path d="M 384 390.4 L 384 390.4" fill="none" stroke="#000"
              stroke-width="3.2" stroke-miterlimit="10" pointer-events="none"/>
        <path d="M 384 368 L 384 368" fill="none" stroke="#000"
              stroke-width="3.2" stroke-miterlimit="10" pointer-events="none"/>
        <path d="M 384 345.6 L 384 345.6" fill="none" stroke="#000"
              stroke-width="3.2" stroke-miterlimit="10" pointer-events="none"/>
        <path d="M 406.4 320 L 406.4 320" fill="none" stroke="#000"
              stroke-width="3.2" stroke-miterlimit="10" pointer-events="none"/>
        <path d="M 428.8 320 L 428.8 320" fill="none" stroke="#000"
              stroke-width="3.2" stroke-miterlimit="10" pointer-events="none"/>
        <path d="M 451.2 320 L 451.2 320" fill="none" stroke="#000"
              stroke-width="3.2" stroke-miterlimit="10" pointer-events="none"/>
        <path d="M 473.6 320 L 473.6 320" fill="none" stroke="#000"
              stroke-width="3.2" stroke-miterlimit="10" pointer-events="none"/>
        <path d="M 496 320 L 496 320" fill="none" stroke="#000"
              stroke-width="3.2" stroke-miterlimit="10" pointer-events="none"/>
        <path d="M 518.4 320 L 518.4 320" fill="none" stroke="#000"
              stroke-width="3.2" stroke-miterlimit="10" pointer-events="none"/>
        <rect x="432" y="336" width="72" height="20.8" fill-opacity="0"
              fill="#dae2f2" stroke="none" pointer-events="none"/>
        <g fill="#000000" font-family="Arial,Helvetica" font-weight="bold"
           text-anchor="middle" font-size="19.200000000000003px">
            <text x="468" y="352.8">
                ATTiny85
            </text>
        </g>
        <rect x="448" y="400" width="36.8" height="20.8" fill-opacity="0"
              fill="#dae2f2" stroke="none" pointer-events="none"/>
        <g fill="#000000" font-family="Arial,Helvetica" font-weight="bold"
           text-anchor="middle" font-size="19.200000000000003px">
            <text x="466.4" y="416.8">
                VCO
            </text>
        </g>
        <rect x="400" y="368" width="118.4" height="22.4" fill-opacity="0"
              fill="#dae2f2" stroke="none" pointer-events="none"/>
        <g fill="#000000" font-family="Arial,Helvetica" font-weight="bold"
           text-anchor="middle" font-size="19.200000000000003px">
            <text x="459.2" y="385.6">
                ACS-85-0005
            </text>
        </g>
        <rect x="574.4" y="286.4" width="3.2" height="3.2" fill="#000000"
              stroke="none" pointer-events="none"/>
        <g fill="#000000" font-family="Arial,Helvetica" text-anchor="middle"
           font-size="19.200000000000003px">
            <text x="575.5" y="247.78">
                +5V
            </text>
        </g>
        <path d="M 576 257.6 L 576 286.4" fill="#000000" stroke="#000000"
              stroke-width="3.2" stroke-linecap="square" stroke-miterlimit="10"
              pointer-events="none"/>
        <path d="M 560 256 L 592 256" fill="none" stroke="#000000"
              stroke-width="3.2" stroke-linecap="square" stroke-miterlimit="10"
              pointer-events="none"/>
        <rect x="574.4" y="350.4" width="3.2" height="3.2" fill="#000000"
              stroke="none" pointer-events="none"/>
        <path d="M 545.6 352 L 574.4 352" fill="#000000" stroke="#000000"
              stroke-width="3.2" stroke-linecap="square" stroke-miterlimit="10"
              pointer-events="none"/>
        <rect x="574.4" y="382.4" width="3.2" height="3.2" fill="#000000"
              stroke="none" pointer-events="none"/>
        <path d="M 545.6 384 L 574.4 384" fill="#000000" stroke="#000000"
              stroke-width="3.2" stroke-linecap="square" stroke-miterlimit="10"
              pointer-events="none"/>
        <rect x="544" y="384" width="30.4" height="20.8" fill-opacity="0"
              fill="#dae2f2" stroke="none" pointer-events="none"/>
        <g fill="#000000" font-family="Arial,Helvetica" font-weight="bold"
           text-anchor="middle" font-size="12.8px">
            <text x="559.2" y="397.6">
                PB0
            </text>
        </g>
        <rect x="574.4" y="414.4" width="3.2" height="3.2" fill="#000000"
              stroke="none" pointer-events="none"/>
        <path d="M 545.6 416 L 574.4 416" fill="#000000" stroke="#000000"
              stroke-width="3.2" stroke-linecap="square" stroke-miterlimit="10"
              pointer-events="none"/>
        <rect x="544" y="416" width="30.4" height="20.8" fill-opacity="0"
              fill="#dae2f2" stroke="none" pointer-events="none"/>
        <g fill="#000000" font-family="Arial,Helvetica" font-weight="bold"
           text-anchor="middle" font-size="12.8px">
            <text x="559.2" y="429.6">
                PB1
            </text>
        </g>
        <rect x="574.4" y="446.4" width="3.2" height="3.2" fill="#000000"
              stroke="none" pointer-events="none"/>
        <path d="M 545.6 448 L 574.4 448" fill="#000000" stroke="#000000"
              stroke-width="3.2" stroke-linecap="square" stroke-miterlimit="10"
              pointer-events="none"/>
        <rect x="544" y="448" width="36.8" height="22.4" fill-opacity="0"
              fill="#dae2f2" stroke="none" pointer-events="none"/>
        <g fill="#000000" font-family="Arial,Helvetica" font-weight="bold"
           text-anchor="middle" font-size="12.8px">
            <text x="562.4" y="462.4">
                PB2
            </text>
        </g>
        <path d="M 576 291.2 L 576 352" fill="none" stroke="#000000"
              stroke-width="3.2" stroke-miterlimit="10" pointer-events="none"/>
        <ellipse cx="576" cy="288" rx="3.2" ry="3.2" fill="#000000"
                 stroke="#000000" stroke-width="3.2" pointer-events="none"/>
        <rect x="350.4" y="350.4" width="3.2" height="3.2" fill="#000000"
              stroke="none" pointer-events="none"/>
        <path d="M 353.6 352 L 382.4 352" fill="#000000" stroke="#000000"
              stroke-width="3.2" stroke-linecap="square" stroke-miterlimit="10"
              pointer-events="none"/>
        <rect x="352" y="320" width="11.2" height="22.4" fill-opacity="0"
              fill="#dae2f2" stroke="none" pointer-events="none"/>
        <g fill="#000000" font-family="Arial,Helvetica" font-weight="bold"
           text-anchor="middle" font-size="19.200000000000003px">
            <text x="357.6" y="337.6">
                1
            </text>
        </g>
        <rect x="350.4" y="382.4" width="3.2" height="3.2" fill="#000000"
              stroke="none" pointer-events="none"/>
        <path d="M 353.6 384 L 382.4 384" fill="#000000" stroke="#000000"
              stroke-width="3.2" stroke-linecap="square" stroke-miterlimit="10"
              pointer-events="none"/>
        <rect x="336" y="384" width="30.4" height="20.8" fill-opacity="0"
              fill="#dae2f2" stroke="none" pointer-events="none"/>
        <g fill="#000000" font-family="Arial,Helvetica" font-weight="bold"
           text-anchor="middle" font-size="12.8px">
            <text x="351.2" y="397.6">
                PB3
            </text>
        </g>
        <rect x="350.4" y="414.4" width="3.2" height="3.2" fill="#000000"
              stroke="none" pointer-events="none"/>
        <path d="M 353.6 416 L 382.4 416" fill="#000000" stroke="#000000"
              stroke-width="3.2" stroke-linecap="square" stroke-miterlimit="10"
              pointer-events="none"/>
        <rect x="336" y="416" width="36.8" height="22.4" fill-opacity="0"
              fill="#dae2f2" stroke="none" pointer-events="none"/>
        <g fill="#000000" font-family="Arial,Helvetica" font-weight="bold"
           text-anchor="middle" font-size="12.8px">
            <text x="354.4" y="430.4">
                PB4
            </text>
        </g>
        <rect x="350.4" y="446.4" width="3.2" height="3.2" fill="#000000"
              stroke="none" pointer-events="none"/>
        <path d="M 353.6 448 L 382.4 448" fill="#000000" stroke="#000000"
              stroke-width="3.2" stroke-linecap="square" stroke-miterlimit="10"
              pointer-events="none"/>
        <rect x="350.4" y="478.4" width="3.2" height="3.2" fill="#000000"
              stroke="none" pointer-events="none"/>
        <path d="M 334.4 513.6 C 369.63 513.6 369.63 513.6 369.63 513.6"
              fill="none" stroke="#000000" stroke-width="3.2"
              stroke-linecap="round" stroke-miterlimit="10"
              pointer-events="none"/>
        <path d="M 340.8 523.2 C 356.11 523.2 363.2 523.2 363.2 523.2"
              fill="none" stroke="#000000" stroke-width="3.2"
              stroke-linecap="round" stroke-miterlimit="10"
              pointer-events="none"/>
        <path d="M 347.2 532.8 C 352.19 532.8 356.8 532.8 356.8 532.8"
              fill="none" stroke="#000000" stroke-width="3.2"
              stroke-linecap="round" stroke-miterlimit="10"
              pointer-events="none"/>
        <path d="M 352 481.6 L 352 510.4" fill="#000000" stroke="#000000"
              stroke-width="3.2" stroke-linecap="square" stroke-miterlimit="10"
              pointer-events="none"/>
        <path d="M 352 451.2 L 352 480" fill="none" stroke="#000000"
              stroke-width="3.2" stroke-miterlimit="10" pointer-events="none"/>
        <ellipse cx="352" cy="448" rx="3.2" ry="3.2" fill="#000000"
                 stroke="#000000" stroke-width="3.2" pointer-events="none"/>
        <rect x="254.4" y="302.4" width="3.2" height="3.2" fill="#000000"
              stroke="none"
              transform="translate(272,0)scale(-1,1)translate(-272,0)rotate(-180,272,352)"
              pointer-events="none"/>
        <rect x="254.4" y="398.4" width="3.2" height="3.2" fill="#000000"
              stroke="none"
              transform="translate(272,0)scale(-1,1)translate(-272,0)rotate(-180,272,352)"
              pointer-events="none"/>
        <rect x="302.4" y="350.4" width="3.2" height="3.2" fill="#000000"
              stroke="none"
              transform="translate(272,0)scale(-1,1)translate(-272,0)rotate(-180,272,352)"
              pointer-events="none"/>
        <path d="M 256 323.2 L 267.2 328 L 256 332.8" fill="none"
              stroke="#000000" stroke-width="3.2" stroke-linejoin="round"
              stroke-linecap="round" stroke-miterlimit="10"
              transform="translate(272,0)scale(-1,1)translate(-272,0)rotate(-180,272,352)"
              pointer-events="none"/>
        <path d="M 256 332.8 L 244.8 337.6 L 256 342.4" fill="none"
              stroke="#000000" stroke-width="3.2" stroke-linejoin="round"
              stroke-linecap="round" stroke-miterlimit="10"
              transform="translate(272,0)scale(-1,1)translate(-272,0)rotate(-180,272,352)"
              pointer-events="none"/>
        <path d="M 256 342.4 L 267.2 347.2 L 256 352" fill="none"
              stroke="#000000" stroke-width="3.2" stroke-linejoin="round"
              stroke-linecap="round" stroke-miterlimit="10"
              transform="translate(272,0)scale(-1,1)translate(-272,0)rotate(-180,272,352)"
              pointer-events="none"/>
        <path d="M 256 352 L 244.8 356.8 L 256 361.6" fill="none"
              stroke="#000000" stroke-width="3.2" stroke-linejoin="round"
              stroke-linecap="round" stroke-miterlimit="10"
              transform="translate(272,0)scale(-1,1)translate(-272,0)rotate(-180,272,352)"
              pointer-events="none"/>
        <path d="M 256 361.6 L 267.2 366.4 L 256 371.2" fill="none"
              stroke="#000000" stroke-width="3.2" stroke-linejoin="round"
              stroke-linecap="round" stroke-miterlimit="10"
              transform="translate(272,0)scale(-1,1)translate(-272,0)rotate(-180,272,352)"
              pointer-events="none"/>
        <path d="M 256 371.2 L 244.8 376 L 256 380.8" fill="none"
              stroke="#000000" stroke-width="3.2" stroke-linejoin="round"
              stroke-linecap="round" stroke-miterlimit="10"
              transform="translate(272,0)scale(-1,1)translate(-272,0)rotate(-180,272,352)"
              pointer-events="none"/>
        <path d="M 256 305.6 L 256 321.6" fill="#000000" stroke="#000000"
              stroke-width="3.2" stroke-linecap="square" stroke-miterlimit="10"
              transform="translate(272,0)scale(-1,1)translate(-272,0)rotate(-180,272,352)"
              pointer-events="none"/>
        <path d="M 256 382.4 L 256 398.4" fill="#000000" stroke="#000000"
              stroke-width="3.2" stroke-linecap="square" stroke-miterlimit="10"
              transform="translate(272,0)scale(-1,1)translate(-272,0)rotate(-180,272,352)"
              pointer-events="none"/>
        <path d="M 280 352 L 302.4 352" fill="#000000" stroke="#000000"
              stroke-width="3.2" stroke-linecap="square" stroke-miterlimit="10"
              transform="translate(272,0)scale(-1,1)translate(-272,0)rotate(-180,272,352)"
              pointer-events="none"/>
        <path d="M 282.84 356.3 C 282.57 356.22 279.12 355.23 275.18 354.11 C 271.23 352.98 268.01 352.04 268.01 352.02 C 268.01 351.99 271.24 351.09 275.2 350 C 279.16 348.91 282.61 347.96 282.88 347.89 L 283.37 347.75 L 283.35 352.1 L 283.33 356.44 L 282.84 356.3 Z"
              fill="#000000" stroke="#000000" stroke-width="1.44"
              stroke-linejoin="round" stroke-linecap="square"
              stroke-miterlimit="10"
              transform="translate(272,0)scale(-1,1)translate(-272,0)rotate(-180,272,352)"
              pointer-events="none"/>
        <rect x="142.4" y="302.4" width="3.2" height="3.2" fill="#000000"
              stroke="none"
              transform="translate(160,0)scale(-1,1)translate(-160,0)rotate(-180,160,352)"
              pointer-events="none"/>
        <rect x="142.4" y="398.4" width="3.2" height="3.2" fill="#000000"
              stroke="none"
              transform="translate(160,0)scale(-1,1)translate(-160,0)rotate(-180,160,352)"
              pointer-events="none"/>
        <rect x="190.4" y="350.4" width="3.2" height="3.2" fill="#000000"
              stroke="none"
              transform="translate(160,0)scale(-1,1)translate(-160,0)rotate(-180,160,352)"
              pointer-events="none"/>
        <path d="M 144 323.2 L 155.2 328 L 144 332.8" fill="none"
              stroke="#000000" stroke-width="3.2" stroke-linejoin="round"
              stroke-linecap="round" stroke-miterlimit="10"
              transform="translate(160,0)scale(-1,1)translate(-160,0)rotate(-180,160,352)"
              pointer-events="none"/>
        <path d="M 144 332.8 L 132.8 337.6 L 144 342.4" fill="none"
              stroke="#000000" stroke-width="3.2" stroke-linejoin="round"
              stroke-linecap="round" stroke-miterlimit="10"
              transform="translate(160,0)scale(-1,1)translate(-160,0)rotate(-180,160,352)"
              pointer-events="none"/>
        <path d="M 144 342.4 L 155.2 347.2 L 144 352" fill="none"
              stroke="#000000" stroke-width="3.2" stroke-linejoin="round"
              stroke-linecap="round" stroke-miterlimit="10"
              transform="translate(160,0)scale(-1,1)translate(-160,0)rotate(-180,160,352)"
              pointer-events="none"/>
        <path d="M 144 352 L 132.8 356.8 L 144 361.6" fill="none"
              stroke="#000000" stroke-width="3.2" stroke-linejoin="round"
              stroke-linecap="round" stroke-miterlimit="10"
              transform="translate(160,0)scale(-1,1)translate(-160,0)rotate(-180,160,352)"
              pointer-events="none"/>
        <path d="M 144 361.6 L 155.2 366.4 L 144 371.2" fill="none"
              stroke="#000000" stroke-width="3.2" stroke-linejoin="round"
              stroke-linecap="round" stroke-miterlimit="10"
              transform="translate(160,0)scale(-1,1)translate(-160,0)rotate(-180,160,352)"
              pointer-events="none"/>
        <path d="M 144 371.2 L 132.8 376 L 144 380.8" fill="none"
              stroke="#000000" stroke-width="3.2" stroke-linejoin="round"
              stroke-linecap="round" stroke-miterlimit="10"
              transform="translate(160,0)scale(-1,1)translate(-160,0)rotate(-180,160,352)"
              pointer-events="none"/>
        <path d="M 144 305.6 L 144 321.6" fill="#000000" stroke="#000000"
              stroke-width="3.2" stroke-linecap="square" stroke-miterlimit="10"
              transform="translate(160,0)scale(-1,1)translate(-160,0)rotate(-180,160,352)"
              pointer-events="none"/>
        <path d="M 144 382.4 L 144 398.4" fill="#000000" stroke="#000000"
              stroke-width="3.2" stroke-linecap="square" stroke-miterlimit="10"
              transform="translate(160,0)scale(-1,1)translate(-160,0)rotate(-180,160,352)"
              pointer-events="none"/>
        <path d="M 168 352 L 190.4 352" fill="#000000" stroke="#000000"
              stroke-width="3.2" stroke-linecap="square" stroke-miterlimit="10"
              transform="translate(160,0)scale(-1,1)translate(-160,0)rotate(-180,160,352)"
              pointer-events="none"/>
        <path d="M 170.84 356.3 C 170.57 356.22 167.12 355.23 163.18 354.11 C 159.23 352.98 156.01 352.04 156.01 352.02 C 156.01 351.99 159.24 351.09 163.2 350 C 167.16 348.91 170.61 347.96 170.88 347.89 L 171.37 347.75 L 171.35 352.1 L 171.33 356.44 L 170.84 356.3 Z"
              fill="#000000" stroke="#000000" stroke-width="1.44"
              stroke-linejoin="round" stroke-linecap="square"
              stroke-miterlimit="10"
              transform="translate(160,0)scale(-1,1)translate(-160,0)rotate(-180,160,352)"
              pointer-events="none"/>
        <path d="M 304 352 L 304 384 L 352 384" fill="none" stroke="#000000"
              stroke-width="3.2" stroke-miterlimit="10" pointer-events="none"/>
        <path d="M 192 352 L 208 352 L 208 416 L 352 416" fill="none"
              stroke="#000000" stroke-width="3.2" stroke-miterlimit="10"
              pointer-events="none"/>
        <path d="M 256 304 L 256 288 L 572.8 288" fill="none" stroke="#000000"
              stroke-width="3.2" stroke-miterlimit="10" pointer-events="none"/>
        <ellipse cx="576" cy="288" rx="3.2" ry="3.2" fill="#000000"
                 stroke="#000000" stroke-width="3.2" pointer-events="none"/>
        <path d="M 144 304 L 144 288 L 252.8 288" fill="none" stroke="#000000"
              stroke-width="3.2" stroke-miterlimit="10" pointer-events="none"/>
        <ellipse cx="256" cy="288" rx="3.2" ry="3.2" fill="#000000"
                 stroke="#000000" stroke-width="3.2" pointer-events="none"/>
        <path d="M 256 400 L 256 448 L 348.8 448" fill="none" stroke="#000000"
              stroke-width="3.2" stroke-miterlimit="10" pointer-events="none"/>
        <ellipse cx="352" cy="448" rx="3.2" ry="3.2" fill="#000000"
                 stroke="#000000" stroke-width="3.2" pointer-events="none"/>
        <path d="M 144 400 L 144 448 L 252.8 448" fill="none" stroke="#000000"
              stroke-width="3.2" stroke-miterlimit="10" pointer-events="none"/>
        <ellipse cx="256" cy="448" rx="3.2" ry="3.2" fill="#000000"
                 stroke="#000000" stroke-width="3.2" pointer-events="none"/>
        <rect x="832" y="320" width="160" height="160" fill="#6ccefb"
              stroke="#000" stroke-width="4.8" pointer-events="none"/>
        <path d="M 992 342.4 L 992 342.4" fill="none" stroke="#000"
              stroke-width="3.2" stroke-miterlimit="10" pointer-events="none"/>
        <path d="M 992 364.8 L 992 364.8" fill="none" stroke="#000"
              stroke-width="3.2" stroke-miterlimit="10" pointer-events="none"/>
        <path d="M 992 387.2 L 992 387.2" fill="none" stroke="#000"
              stroke-width="3.2" stroke-miterlimit="10" pointer-events="none"/>
        <path d="M 992 409.6 L 992 409.6" fill="none" stroke="#000"
              stroke-width="3.2" stroke-miterlimit="10" pointer-events="none"/>
        <path d="M 992 432 L 992 432" fill="none" stroke="#000"
              stroke-width="3.2" stroke-miterlimit="10" pointer-events="none"/>
        <path d="M 992 454.4 L 992 454.4" fill="none" stroke="#000"
              stroke-width="3.2" stroke-miterlimit="10" pointer-events="none"/>
        <path d="M 969.6 480 L 969.6 480" fill="none" stroke="#000"
              stroke-width="3.2" stroke-miterlimit="10" pointer-events="none"/>
        <path d="M 947.2 480 L 947.2 480" fill="none" stroke="#000"
              stroke-width="3.2" stroke-miterlimit="10" pointer-events="none"/>
        <path d="M 924.8 480 L 924.8 480" fill="none" stroke="#000"
              stroke-width="3.2" stroke-miterlimit="10" pointer-events="none"/>
        <path d="M 902.4 480 L 902.4 480" fill="none" stroke="#000"
              stroke-width="3.2" stroke-miterlimit="10" pointer-events="none"/>
        <path d="M 880 480 L 880 480" fill="none" stroke="#000"
              stroke-width="3.2" stroke-miterlimit="10" pointer-events="none"/>
        <path d="M 857.6 480 L 857.6 480" fill="none" stroke="#000"
              stroke-width="3.2" stroke-miterlimit="10" pointer-events="none"/>
        <path d="M 832 457.6 L 832 457.6" fill="none" stroke="#000"
              stroke-width="3.2" stroke-miterlimit="10" pointer-events="none"/>
        <path d="M 832 435.2 L 832 435.2" fill="none" stroke="#000"
              stroke-width="3.2" stroke-miterlimit="10" pointer-events="none"/>
        <path d="M 832 412.8 L 832 412.8" fill="none" stroke="#000"
              stroke-width="3.2" stroke-miterlimit="10" pointer-events="none"/>
        <path d="M 832 390.4 L 832 390.4" fill="none" stroke="#000"
              stroke-width="3.2" stroke-miterlimit="10" pointer-events="none"/>
        <path d="M 832 368 L 832 368" fill="none" stroke="#000"
              stroke-width="3.2" stroke-miterlimit="10" pointer-events="none"/>
        <path d="M 832 345.6 L 832 345.6" fill="none" stroke="#000"
              stroke-width="3.2" stroke-miterlimit="10" pointer-events="none"/>
        <path d="M 854.4 320 L 854.4 320" fill="none" stroke="#000"
              stroke-width="3.2" stroke-miterlimit="10" pointer-events="none"/>
        <path d="M 876.8 320 L 876.8 320" fill="none" stroke="#000"
              stroke-width="3.2" stroke-miterlimit="10" pointer-events="none"/>
        <path d="M 899.2 320 L 899.2 320" fill="none" stroke="#000"
              stroke-width="3.2" stroke-miterlimit="10" pointer-events="none"/>
        <path d="M 921.6 320 L 921.6 320" fill="none" stroke="#000"
              stroke-width="3.2" stroke-miterlimit="10" pointer-events="none"/>
        <path d="M 944 320 L 944 320" fill="none" stroke="#000"
              stroke-width="3.2" stroke-miterlimit="10" pointer-events="none"/>
        <path d="M 966.4 320 L 966.4 320" fill="none" stroke="#000"
              stroke-width="3.2" stroke-miterlimit="10" pointer-events="none"/>
        <rect x="864" y="336" width="72" height="20.8" fill-opacity="0"
              fill="#dae2f2" stroke="none" pointer-events="none"/>
        <g fill="#000000" font-family="Arial,Helvetica" font-weight="bold"
           text-anchor="middle" font-size="19.200000000000003px">
            <text x="900" y="352.8">
                ATTiny85
            </text>
        </g>
        <rect x="848" y="368" width="118.4" height="22.4" fill-opacity="0"
              fill="#dae2f2" stroke="none" pointer-events="none"/>
        <g fill="#000000" font-family="Arial,Helvetica" font-weight="bold"
           text-anchor="middle" font-size="19.200000000000003px">
            <text x="907.2" y="385.6">
                ACS-85-0305
            </text>
        </g>
        <rect x="880" y="400" width="35.2" height="20.8" fill-opacity="0"
              fill="#dae2f2" stroke="none" pointer-events="none"/>
        <g fill="#000000" font-family="Arial,Helvetica" font-weight="bold"
           text-anchor="middle" font-size="19.200000000000003px">
            <text x="897.6" y="416.8">
                XOR
            </text>
        </g>
        <rect x="1022.4" y="286.4" width="3.2" height="3.2" fill="#000000"
              stroke="none" pointer-events="none"/>
        <g fill="#000000" font-family="Arial,Helvetica" text-anchor="middle"
           font-size="19.200000000000003px">
            <text x="1023.5" y="247.78">
                +5V
            </text>
        </g>
        <path d="M 1024 257.6 L 1024 286.4" fill="#000000" stroke="#000000"
              stroke-width="3.2" stroke-linecap="square" stroke-miterlimit="10"
              pointer-events="none"/>
        <path d="M 1008 256 L 1040 256" fill="none" stroke="#000000"
              stroke-width="3.2" stroke-linecap="square" stroke-miterlimit="10"
              pointer-events="none"/>
        <rect x="1022.4" y="350.4" width="3.2" height="3.2" fill="#000000"
              stroke="none" pointer-events="none"/>
        <path d="M 993.6 352 L 1022.4 352" fill="#000000" stroke="#000000"
              stroke-width="3.2" stroke-linecap="square" stroke-miterlimit="10"
              pointer-events="none"/>
        <rect x="1022.4" y="382.4" width="3.2" height="3.2" fill="#000000"
              stroke="none" pointer-events="none"/>
        <path d="M 993.6 384 L 1022.4 384" fill="#000000" stroke="#000000"
              stroke-width="3.2" stroke-linecap="square" stroke-miterlimit="10"
              pointer-events="none"/>
        <rect x="992" y="368" width="36.8" height="22.4" fill-opacity="0"
              fill="#dae2f2" stroke="none" pointer-events="none"/>
        <g fill="#000000" font-family="Arial,Helvetica" font-weight="bold"
           text-anchor="middle" font-size="12.8px">
            <text x="1010.4" y="382.4">
                PB0
            </text>
        </g>
        <rect x="1022.4" y="414.4" width="3.2" height="3.2" fill="#000000"
              stroke="none" pointer-events="none"/>
        <path d="M 993.6 416 L 1022.4 416" fill="#000000" stroke="#000000"
              stroke-width="3.2" stroke-linecap="square" stroke-miterlimit="10"
              pointer-events="none"/>
        <rect x="992" y="400" width="30.4" height="20.8" fill-opacity="0"
              fill="#dae2f2" stroke="none" pointer-events="none"/>
        <g fill="#000000" font-family="Arial,Helvetica" font-weight="bold"
           text-anchor="middle" font-size="12.8px">
            <text x="1007.2" y="413.6">
                PB1
            </text>
        </g>
        <rect x="1022.4" y="446.4" width="3.2" height="3.2" fill="#000000"
              stroke="none" pointer-events="none"/>
        <path d="M 993.6 448 L 1022.4 448" fill="#000000" stroke="#000000"
              stroke-width="3.2" stroke-linecap="square" stroke-miterlimit="10"
              pointer-events="none"/>
        <rect x="992" y="432" width="36.8" height="22.4" fill-opacity="0"
              fill="#dae2f2" stroke="none" pointer-events="none"/>
        <g fill="#000000" font-family="Arial,Helvetica" font-weight="bold"
           text-anchor="middle" font-size="12.8px">
            <text x="1010.4" y="446.4">
                PB2
            </text>
        </g>
        <path d="M 1024 288 L 1024 352" fill="none" stroke="#000000"
              stroke-width="3.2" stroke-miterlimit="10" pointer-events="none"/>
        <rect x="798.4" y="350.4" width="3.2" height="3.2" fill="#000000"
              stroke="none" pointer-events="none"/>
        <path d="M 801.6 352 L 830.4 352" fill="#000000" stroke="#000000"
              stroke-width="3.2" stroke-linecap="square" stroke-miterlimit="10"
              pointer-events="none"/>
        <rect x="798.4" y="382.4" width="3.2" height="3.2" fill="#000000"
              stroke="none" pointer-events="none"/>
        <path d="M 801.6 384 L 830.4 384" fill="#000000" stroke="#000000"
              stroke-width="3.2" stroke-linecap="square" stroke-miterlimit="10"
              pointer-events="none"/>
        <rect x="798.4" y="414.4" width="3.2" height="3.2" fill="#000000"
              stroke="none" pointer-events="none"/>
        <path d="M 801.6 416 L 830.4 416" fill="#000000" stroke="#000000"
              stroke-width="3.2" stroke-linecap="square" stroke-miterlimit="10"
              pointer-events="none"/>
        <rect x="784" y="400" width="36.8" height="22.4" fill-opacity="0"
              fill="#dae2f2" stroke="none" pointer-events="none"/>
        <g fill="#000000" font-family="Arial,Helvetica" font-weight="bold"
           text-anchor="middle" font-size="12.8px">
            <text x="802.4" y="414.4">
                PB4
            </text>
        </g>
        <rect x="798.4" y="446.4" width="3.2" height="3.2" fill="#000000"
              stroke="none" pointer-events="none"/>
        <path d="M 801.6 448 L 830.4 448" fill="#000000" stroke="#000000"
              stroke-width="3.2" stroke-linecap="square" stroke-miterlimit="10"
              pointer-events="none"/>
        <rect x="798.4" y="478.4" width="3.2" height="3.2" fill="#000000"
              stroke="none" pointer-events="none"/>
        <path d="M 782.4 513.6 C 817.63 513.6 817.63 513.6 817.63 513.6"
              fill="none" stroke="#000000" stroke-width="3.2"
              stroke-linecap="round" stroke-miterlimit="10"
              pointer-events="none"/>
        <path d="M 788.8 523.2 C 804.11 523.2 811.2 523.2 811.2 523.2"
              fill="none" stroke="#000000" stroke-width="3.2"
              stroke-linecap="round" stroke-miterlimit="10"
              pointer-events="none"/>
        <path d="M 795.2 532.8 C 800.19 532.8 804.8 532.8 804.8 532.8"
              fill="none" stroke="#000000" stroke-width="3.2"
              stroke-linecap="round" stroke-miterlimit="10"
              pointer-events="none"/>
        <path d="M 800 481.6 L 800 510.4" fill="#000000" stroke="#000000"
              stroke-width="3.2" stroke-linecap="square" stroke-miterlimit="10"
              pointer-events="none"/>
        <path d="M 800 448 L 800 480" fill="none" stroke="#000000"
              stroke-width="3.2" stroke-miterlimit="10" pointer-events="none"/>
        <rect x="1214.4" y="430.4" width="3.2" height="3.2" fill="#000000"
              stroke="none" transform="rotate(90,1216,416)"
              pointer-events="none"/>
        <ellipse cx="1216" cy="416" rx="6.616" ry="6.616" fill="#ffffff"
                 stroke="#000000" stroke-width="3.2"
                 transform="rotate(90,1216,416)" pointer-events="none"/>
        <path d="M 1216 424 L 1216 430.4" fill="#ffffff" stroke="#000000"
              stroke-width="3.2" stroke-linecap="square" stroke-miterlimit="10"
              transform="rotate(90,1216,416)" pointer-events="none"/>
        <g fill="#000" font-family="Arial,Helvetica" font-weight="bold"
           font-size="19.200000000000003px">
            <text x="387.2" y="659.2">
                Two tone/Ramp driving a 16 bit LFSR
            </text>
            <text x="387.2" y="681.6">
                https://github.com/robstave/ArduinoComponentSketches
            </text>
        </g>
        <path d="M 576 384 L 688 384 L 688 560 L 1040 560 L 1040 448 L 1024 448"
              fill="none" stroke="#000000" stroke-width="3.2"
              stroke-miterlimit="10" pointer-events="none"/>
        <path d="M 576 416 L 672 416 L 672 576 L 1056 576 L 1056 416 L 1024 416"
              fill="none" stroke="#000000" stroke-width="3.2"
              stroke-miterlimit="10" pointer-events="none"/>
        <path d="M 1024 384 L 1072 384 L 1072 592 L 656 592 L 656 448 L 576 448"
              fill="none" stroke="#000000" stroke-width="3.2"
              stroke-miterlimit="10" pointer-events="none"/>
        <rect x="766.4" y="270.4" width="3.2" height="3.2" fill="#000000"
              stroke="none" pointer-events="none"/>
        <ellipse cx="768" cy="256" rx="6.616" ry="6.616" fill="#ffffff"
                 stroke="#000000" stroke-width="3.2" pointer-events="none"/>
        <path d="M 768 264 L 768 270.4" fill="#ffffff" stroke="#000000"
              stroke-width="3.2" stroke-linecap="square" stroke-miterlimit="10"
              pointer-events="none"/>
        <rect x="704" y="208" width="57.6" height="22.4" fill-opacity="0"
              fill="#dae2f2" stroke="none" pointer-events="none"/>
        <g fill="#000000" font-family="Arial,Helvetica" font-weight="bold"
           text-anchor="middle" font-size="19.200000000000003px">
            <text x="732.8" y="225.6">
                Output
            </text>
        </g>
        <path d="M 768 272 L 768 416 L 800 416" fill="none" stroke="#000000"
              stroke-width="3.2" stroke-miterlimit="10" pointer-events="none"/>
    </g>
</svg>